<svg width="40.000000" height="40.000000" viewBox="0 0 40 40" fill="none" xmlns="http://www.w3.org/2000/svg" xmlns:xlink="http://www.w3.org/1999/xlink">
	<desc>
			Created with Pixso.
	</desc>
	<defs/>
	<path id="Vector" d="M5 40C3.62 40 2.44 39.5 1.46 38.53C0.48 37.55 -0.01 36.37 0 35L0 27.5L5 27.5L5 35L35 35L35 27.5L40 27.5L40 35C40 36.37 39.5 37.55 38.52 38.53C37.55 39.51 36.37 40 35 40L5 40ZM20 30L7.5 17.5L11 13.87L17.5 20.37L17.5 0L22.5 0L22.5 20.37L29 13.87L32.5 17.5L20 30Z" fill="#CCCCCC" fill-opacity="1.000000" fill-rule="nonzero"/>
</svg>
